<?xml version="1.0" encoding="UTF-8" standalone="no"?>
<!-- Created with Inkscape (http://www.inkscape.org/) -->

<svg
   xmlns:dc="http://purl.org/dc/elements/1.1/"
   xmlns:cc="http://creativecommons.org/ns#"
   xmlns:rdf="http://www.w3.org/1999/02/22-rdf-syntax-ns#"
   xmlns:svg="http://www.w3.org/2000/svg"
   xmlns="http://www.w3.org/2000/svg"
   xmlns:xlink="http://www.w3.org/1999/xlink"
   xmlns:sodipodi="http://sodipodi.sourceforge.net/DTD/sodipodi-0.dtd"
   xmlns:inkscape="http://www.inkscape.org/namespaces/inkscape"
   width="338.66632mm"
   height="108.26279mm"
   viewBox="0 0 338.66633 108.26279"
   version="1.1"
   id="svg8"
   inkscape:version="0.92.4 (5da689c313, 2019-01-14)"
   sodipodi:docname="Logo.svg">
  <defs
     id="defs2">
    <linearGradient
       inkscape:collect="always"
       xlink:href="#linearGradient4011"
       id="linearGradient4013"
       x1="5399.668"
       y1="536.05139"
       x2="5399.3579"
       y2="525.86493"
       gradientUnits="userSpaceOnUse"
       gradientTransform="matrix(4.8152251,0,0,4.8152251,-26440.244,-2494.7292)" />
    <linearGradient
       inkscape:collect="always"
       id="linearGradient4011">
      <stop
         style="stop-color:#0b4699;stop-opacity:1;"
         offset="0"
         id="stop4007" />
      <stop
         style="stop-color:#0f6edb;stop-opacity:1"
         offset="1"
         id="stop4009" />
    </linearGradient>
    <linearGradient
       inkscape:collect="always"
       xlink:href="#linearGradient1447"
       id="linearGradient3875"
       gradientUnits="userSpaceOnUse"
       gradientTransform="matrix(0.83335102,0.01749819,-0.0178798,0.81556286,-11877.729,-2070.7303)"
       x1="13604.153"
       y1="2258.9041"
       x2="13636.971"
       y2="2381.3799" />
    <linearGradient
       inkscape:collect="always"
       id="linearGradient1447">
      <stop
         style="stop-color:#ffb600;stop-opacity:1;"
         offset="0"
         id="stop1443" />
      <stop
         style="stop-color:#ff7b00;stop-opacity:1"
         offset="1"
         id="stop1445" />
    </linearGradient>
  </defs>
  <sodipodi:namedview
     id="base"
     pagecolor="#eeeeee"
     bordercolor="#666666"
     borderopacity="1.0"
     inkscape:pageopacity="0"
     inkscape:pageshadow="2"
     inkscape:zoom="0.70710678"
     inkscape:cx="668.08574"
     inkscape:cy="183.91578"
     inkscape:document-units="px"
     inkscape:current-layer="layer2"
     showgrid="false"
     fit-margin-top="0"
     fit-margin-left="0"
     fit-margin-right="0"
     fit-margin-bottom="0"
     inkscape:showpageshadow="false"
     borderlayer="true"
     inkscape:window-width="1920"
     inkscape:window-height="1017"
     inkscape:window-x="1912"
     inkscape:window-y="-8"
     inkscape:window-maximized="1"
     inkscape:snap-smooth-nodes="true"
     inkscape:snap-global="false"
     showborder="true" />
  <metadata
     id="metadata5">
    <rdf:RDF>
      <cc:Work
         rdf:about="">
        <dc:format>image/svg+xml</dc:format>
        <dc:type
           rdf:resource="http://purl.org/dc/dcmitype/StillImage" />
        <dc:title></dc:title>
      </cc:Work>
    </rdf:RDF>
  </metadata>
  <g
     inkscape:groupmode="layer"
     id="layer2"
     inkscape:label="Layer 1"
     transform="translate(627.86341,-11.159457)">
    <path
       inkscape:connector-curvature="0"
       style="color:#000000;font-style:normal;font-variant:normal;font-weight:normal;font-stretch:normal;font-size:medium;line-height:normal;font-family:sans-serif;font-variant-ligatures:normal;font-variant-position:normal;font-variant-caps:normal;font-variant-numeric:normal;font-variant-alternates:normal;font-feature-settings:normal;text-indent:0;text-align:start;text-decoration:none;text-decoration-line:none;text-decoration-style:solid;text-decoration-color:#000000;letter-spacing:normal;word-spacing:normal;text-transform:none;writing-mode:lr-tb;direction:ltr;text-orientation:mixed;dominant-baseline:auto;baseline-shift:baseline;text-anchor:start;white-space:normal;shape-padding:0;clip-rule:nonzero;display:inline;overflow:visible;visibility:visible;opacity:0.444;isolation:auto;mix-blend-mode:normal;color-interpolation:sRGB;color-interpolation-filters:linearRGB;solid-color:#000000;solid-opacity:1;vector-effect:none;fill:#000000;fill-opacity:1;fill-rule:nonzero;stroke:none;stroke-width:1.85208333;stroke-linecap:round;stroke-linejoin:round;stroke-miterlimit:4;stroke-dasharray:none;stroke-dashoffset:0;stroke-opacity:1;color-rendering:auto;image-rendering:auto;shape-rendering:auto;text-rendering:auto;enable-background:accumulate"
       d="m -588.38386,14.653181 a 4.4595448,4.4595448 0 0 0 -1.3136,0.149272 l -5.05165,1.363575 c -19.46699,5.224134 -33.09023,22.954563 -33.1143,43.112877 a 4.4595448,4.4595448 0 0 0 0,0.0096 v 0.0096 0.0096 c 0,22.139634 16.40306,40.837545 37.93675,44.135635 l 0.053,0.43289 c 0,0 0.002,0 0.002,0 v 0.002 l 0.67654,6.77825 a 4.4595448,4.4595448 0 0 0 4.88938,3.99876 l 15.51032,-1.58002 3.31866,4.52366 a 4.4595448,4.4595448 0 0 0 4.74829,1.67218 l 5.05165,-1.35365 c 12.74301,-3.41693 22.65371,-12.35423 28.20422,-23.651571 6.76636,4.164399 14.64262,6.787401 23.29702,5.519066 3.93934,-0.57749 7.63551,-1.908466 11.1824,-3.421362 l 20.89663,0.920575 a 4.4595448,4.4595448 0 0 0 0.0867,0 c 9.02517,0.234502 18.31182,-1.573808 24.47049,-7.308211 6.97919,5.360982 15.62829,8.754512 25.16677,7.572086 0.48923,-0.06067 0.46226,-0.138679 0.84604,-0.226316 l 3.8464,4.882063 a 4.4595448,4.4595448 0 0 0 6.1423,0.8262 l 10.14616,-7.477521 c 2.94547,1.175926 5.91021,2.453116 9.37669,2.304181 1.49465,-0.06452 1.50716,-0.315397 2.20152,-0.592128 a 4.4595448,4.4595448 0 0 0 1.34441,0.15168 l 23.13619,-0.997811 a 4.4595448,4.4595448 0 0 0 3.35718,-1.766706 c 0.85374,0.245095 0.96304,0.597906 2.08788,0.656893 3.7241,0.195498 7.13472,-0.697534 10.46782,-1.674591 6.94837,4.104016 14.79911,4.8302 21.93961,3.650326 2.60696,-0.430481 5.19081,-1.475433 7.73084,-2.615197 2.20152,0.971327 4.42471,1.977805 6.92333,2.17234 5.13544,0.397738 10.10042,-0.710871 14.44472,-2.829233 l 5.44409,-2.652611 a 4.4595448,4.4595448 0 0 0 2.39894,-4.994063 l -3.01818,-13.270279 a 4.4595448,4.4595448 0 0 0 2.61563,-3.705171 l 1.72867,-20.737826 a 4.4595448,4.4595448 0 0 0 -4.10113,-4.81484 l -4.69195,-0.368365 0.33706,-4.043489 a 4.4595448,4.4595448 0 0 0 -4.09968,-4.814936 l -22.95803,-1.77677 a 4.4595448,4.4595448 0 0 0 -4.78778,4.080951 l -0.33707,4.080856 -0.22631,-0.01926 a 4.4595448,4.4595448 0 0 0 -3.47178,1.27902 c -0.99242,-0.157458 -1.27266,-0.46178 -2.9238,-0.189239 -2.38113,0.393404 -4.60817,1.433782 -6.83762,2.416184 -3.92441,-2.59141 -8.43194,-4.631621 -13.72002,-4.909604 -3.49249,-0.182978 -6.50778,0.817048 -9.48166,1.769259 a 4.4595448,4.4595448 0 0 0 -1.32612,-0.15168 l -22.78709,0.98038 a 4.4595448,4.4595448 0 0 0 -0.0578,0.0096 l -0.31299,0.01926 -10.99364,0.450224 c -7.37789,-7.269112 -17.71184,-11.39263 -28.74111,-10.025443 -6.66813,0.826726 -12.37465,3.777207 -17.23851,7.591924 -6.44422,-4.915478 -14.08694,-7.58239 -20.62409,-7.761131 l -26.31617,-1.164611 a 4.4595448,4.4595448 0 0 0 -4.63658,4.033618 c -4.39149,-0.969305 -8.92695,-1.539042 -13.65502,-0.846083 -8.84556,1.296451 -15.85894,6.071084 -21.28233,12.055975 -6.63538,-7.840486 -15.30904,-14.054197 -25.95695,-15.858077 l -0.053,-0.46804 -0.68761,-6.790671 a 4.4595448,4.4595448 0 0 0 -4.88842,-3.996252 l -15.52043,1.589988 -3.36729,-4.553614 a 4.4595448,4.4595448 0 0 0 -3.42844,-1.804024 z"
       id="path3821" />
    <path
       id="path3823"
       d="m -588.38386,11.162287 a 4.4595448,4.4595448 0 0 0 -1.3136,0.149272 l -5.05117,1.363575 c -19.46747,5.224182 -33.09071,22.954564 -33.11478,43.112877 a 4.4595448,4.4595448 0 0 0 0,0.0096 v 0.0096 0.0096 c 0,22.139683 16.40306,40.837539 37.93675,44.135631 l 0.053,0.432888 c 0,0 0.002,0 0.002,0 v 0.002 l 0.67654,6.7782 a 4.4595448,4.4595448 0 0 0 4.88986,3.9988 l 15.50984,-1.58007 3.31914,4.52372 a 4.4595448,4.4595448 0 0 0 4.74829,1.67213 l 5.05117,-1.35366 c 12.74301,-3.41693 22.65371,-12.35423 28.2047,-23.651565 6.76636,4.164399 14.64214,6.787397 23.29702,5.519115 3.93886,-0.577538 7.63503,-1.908515 11.18192,-3.42141 l 20.89663,0.920623 a 4.4595448,4.4595448 0 0 0 0.0867,0 c 9.02517,0.234501 18.31133,-1.573809 24.47001,-7.308212 6.97918,5.360983 15.62877,8.754464 25.16725,7.572038 0.48923,-0.06067 0.46226,-0.138679 0.84604,-0.226316 l 3.84592,4.882061 a 4.4595448,4.4595448 0 0 0 6.1423,0.826196 l 10.14616,-7.477515 c 2.94595,1.175926 5.91021,2.453165 9.37717,2.30423 1.49416,-0.06452 1.50716,-0.315398 2.20152,-0.592177 a 4.4595448,4.4595448 0 0 0 1.34393,0.15168 l 23.13619,-0.997811 a 4.4595448,4.4595448 0 0 0 3.35718,-1.766706 c 0.85374,0.245095 0.96304,0.597906 2.08836,0.656893 3.7241,0.195498 7.13424,-0.697534 10.46734,-1.674591 6.94837,4.104016 14.79911,4.830249 21.94009,3.650374 2.60648,-0.430481 5.19033,-1.475481 7.73084,-2.615197 2.20152,0.971279 4.42471,1.977758 6.92285,2.172341 5.13592,0.397737 10.10042,-0.71092 14.4452,-2.829234 l 5.44361,-2.652659 a 4.4595448,4.4595448 0 0 0 2.39894,-4.994063 l -3.01818,-13.270279 a 4.4595448,4.4595448 0 0 0 2.61563,-3.705123 l 1.72915,-20.737874 a 4.4595448,4.4595448 0 0 0 -4.10113,-4.81484 l -4.69244,-0.368365 0.33707,-4.043489 a 4.4595448,4.4595448 0 0 0 -4.09968,-4.814936 l -22.95803,-1.77677 a 4.4595448,4.4595448 0 0 0 -4.78778,4.080952 l -0.33707,4.080855 -0.22631,-0.01926 a 4.4595448,4.4595448 0 0 0 -3.47178,1.278972 c -0.99242,-0.157458 -1.27266,-0.46178 -2.92381,-0.189239 -2.38112,0.393404 -4.60817,1.433782 -6.83761,2.416184 -3.92393,-2.591361 -8.43146,-4.63162 -13.72003,-4.909603 -3.492,-0.182979 -6.50777,0.817047 -9.48117,1.769258 a 4.4595448,4.4595448 0 0 0 -1.3266,-0.15168 l -22.78709,0.980332 a 4.4595448,4.4595448 0 0 0 -0.0578,0.0096 l -0.31299,0.01926 -10.99364,0.450224 c -7.37789,-7.269112 -17.71136,-11.39263 -28.74063,-10.025443 -6.66813,0.826726 -12.37465,3.777255 -17.23899,7.591924 -6.44422,-4.91543 -14.08694,-7.58239 -20.62409,-7.761131 l -26.31617,-1.164563 a 4.4595448,4.4595448 0 0 0 -4.6361,4.03357 c -4.39149,-0.969305 -8.92743,-1.539042 -13.65502,-0.846083 -8.84556,1.296451 -15.85942,6.071132 -21.28281,12.055975 -6.6349,-7.840486 -15.30856,-14.054149 -25.95695,-15.858077 l -0.053,-0.467558 -0.68809,-6.79072 a 4.4595448,4.4595448 0 0 0 -4.88842,-3.996251 l -15.52043,1.589987 -3.36729,-4.553614 a 4.4595448,4.4595448 0 0 0 -3.42796,-1.804024 z"
       style="color:#000000;font-style:normal;font-variant:normal;font-weight:normal;font-stretch:normal;font-size:medium;line-height:normal;font-family:sans-serif;font-variant-ligatures:normal;font-variant-position:normal;font-variant-caps:normal;font-variant-numeric:normal;font-variant-alternates:normal;font-feature-settings:normal;text-indent:0;text-align:start;text-decoration:none;text-decoration-line:none;text-decoration-style:solid;text-decoration-color:#000000;letter-spacing:normal;word-spacing:normal;text-transform:none;writing-mode:lr-tb;direction:ltr;text-orientation:mixed;dominant-baseline:auto;baseline-shift:baseline;text-anchor:start;white-space:normal;shape-padding:0;clip-rule:nonzero;display:inline;overflow:visible;visibility:visible;opacity:1;isolation:auto;mix-blend-mode:normal;color-interpolation:sRGB;color-interpolation-filters:linearRGB;solid-color:#000000;solid-opacity:1;vector-effect:none;fill:#ffffff;fill-opacity:1;fill-rule:nonzero;stroke:none;stroke-width:1.85208333;stroke-linecap:round;stroke-linejoin:round;stroke-miterlimit:4;stroke-dasharray:none;stroke-dashoffset:0;stroke-opacity:1;color-rendering:auto;image-rendering:auto;shape-rendering:auto;text-rendering:auto;enable-background:accumulate"
       inkscape:connector-curvature="0" />
    <path
       sodipodi:nodetypes="ccccsccccccccccccccccccccccccccccccccccccccccccccccccccccccccc"
       inkscape:connector-curvature="0"
       id="path3825"
       d="m -588.53217,15.619548 -5.05021,1.36372 c -17.53753,4.702549 -29.79998,20.656449 -29.82262,38.813315 v 0.0096 0.0096 c 0,21.083175 16.48974,38.689371 37.52505,40.111211 h 0.0482 l 1.0815,10.796606 18.04746,-1.83393 4.82485,6.58333 5.05021,-1.35429 c 13.01219,-3.48906 23.06493,-13.200165 27.42415,-25.383359 6.52608,5.503417 15.25704,8.514474 24.58414,7.147576 3.90274,-0.572049 7.72699,-1.844135 11.36104,-3.49855 l 21.56498,0.9499 c 9.78213,0.254243 19.43618,-2.080226 23.7198,-8.398331 6.37392,6.320946 15.49684,9.899236 25.25152,8.689941 1.10317,-0.136753 2.03733,-0.60696 3.09427,-0.846421 l 5.65211,7.166403 11.68992,-8.614726 c 3.15734,1.661541 6.6296,2.733699 10.27954,2.576916 1.20863,-0.052 2.29927,-0.783148 3.49875,-1.043941 l 0.0482,0.601903 23.13571,-0.996896 -0.13964,-3.150602 c 2.0508,0.633732 3.78862,1.924164 6.00988,2.040837 3.96004,0.208018 7.73662,-0.491105 11.22911,-1.79632 l 1.24136,0.7336 c 5.88324,3.486464 12.62119,4.14456 18.97873,3.094167 2.90117,-0.479115 5.78453,-1.37465 8.39872,-2.821433 2.33538,1.253548 4.87204,2.141331 7.32636,2.332351 4.27736,0.331287 8.4618,-0.589865 12.15074,-2.388785 l 5.44506,-2.65213 -4.23211,-18.62139 3.73373,0.291321 1.73059,-20.737441 -9.16,-0.714772 0.70495,-8.511296 -22.95659,-1.777492 -0.70543,8.501858 -4.64621,-0.35729 -0.10112,1.48593 c -1.76574,-0.01445 -3.45396,-0.733744 -5.2197,-0.442037 -2.7442,0.453112 -5.51247,1.446975 -8.05058,2.84965 -3.76406,-2.925972 -8.27304,-5.021461 -13.47685,-5.29487 -3.67209,-0.192609 -7.12316,0.674228 -10.37344,1.975013 v -0.348141 l -22.78805,0.978117 -0.33707,0.01926 -12.29182,0.517251 c -6.34117,-7.456857 -16.51189,-11.434763 -27.1232,-10.119484 -6.9373,0.860095 -12.95777,3.99837 -17.61506,8.426644 -5.76671,-5.757276 -14.38211,-8.379503 -20.91686,-8.558292 l -26.38935,-1.1662 -0.24558,5.144394 c -5.51295,-1.871485 -11.34178,-2.861929 -17.20143,-2.00323 -9.44747,1.38457 -17.12294,6.683533 -21.91313,13.730952 -6.75239,-9.913297 -17.27654,-17.094001 -30.01955,-17.953663 h -0.0482 l -1.0815,-10.80604 -18.04746,1.843317 z"
       style="color:#000000;font-style:normal;font-variant:normal;font-weight:normal;font-stretch:normal;font-size:medium;line-height:normal;font-family:sans-serif;font-variant-ligatures:normal;font-variant-position:normal;font-variant-caps:normal;font-variant-numeric:normal;font-variant-alternates:normal;font-feature-settings:normal;text-indent:0;text-align:start;text-decoration:none;text-decoration-line:none;text-decoration-style:solid;text-decoration-color:#000000;letter-spacing:normal;word-spacing:normal;text-transform:none;writing-mode:lr-tb;direction:ltr;text-orientation:mixed;dominant-baseline:auto;baseline-shift:baseline;text-anchor:start;white-space:normal;shape-padding:0;clip-rule:nonzero;display:inline;overflow:visible;visibility:visible;opacity:1;isolation:auto;mix-blend-mode:normal;color-interpolation:sRGB;color-interpolation-filters:linearRGB;solid-color:#000000;solid-opacity:1;vector-effect:none;fill:url(#linearGradient4013);fill-opacity:1;fill-rule:nonzero;stroke:none;stroke-width:3.17499971;stroke-linecap:round;stroke-linejoin:miter;stroke-miterlimit:4;stroke-dasharray:none;stroke-dashoffset:0;stroke-opacity:1;color-rendering:auto;image-rendering:auto;shape-rendering:auto;text-rendering:auto;enable-background:accumulate" />
    <path
       inkscape:connector-curvature="0"
       id="path3827"
       d="m -589.56985,26.418124 -4.27207,1.569282 0.53015,7.06928 c -1.53364,0.841316 -2.96714,1.825885 -4.28603,2.934735 l -6.60793,-2.739526 -2.89828,3.451505 3.97978,5.73137 c -0.91489,1.508417 -1.67281,3.11078 -2.26075,4.787634 l -6.98111,0.846228 -0.74492,4.405064 6.2935,2.979998 c 0,0.882294 0.0481,1.773255 0.1252,2.67038 0.0915,0.896594 0.22631,1.778744 0.40448,2.64274 l -5.58181,4.123469 1.60732,4.177208 7.01386,-0.499772 c 0.91056,1.532686 1.97279,2.96223 3.16986,4.267397 l -2.76153,6.378729 3.52474,2.832508 5.93621,-3.943862 c 1.51391,0.836982 3.11786,1.528785 4.78922,2.062361 l 0.88649,7.035332 4.50127,0.728736 3.21079,-6.496749 c 0.83641,-0.01445 1.67955,-0.06404 2.52703,-0.157458 l 10e-4,0.0031 12.28123,-1.179538 -1.75034,-17.44715 -12.28171,1.177949 0.54557,5.42984 c 0,0 -0.002,-0.0017 -0.002,-0.0017 -7.72699,0.742026 -14.60602,-4.786334 -15.3649,-12.348067 -0.75792,-7.561203 4.8913,-14.291444 12.61781,-15.033951 v -0.0016 l 12.28124,-1.179586 -1.20574,-12.020583 -12.28075,1.179537 c -0.85037,0.06934 -1.68629,0.179608 -2.51017,0.326472 z m 26.67731,14.590469 -3.21176,6.496702 c -0.83544,0.01445 -1.6781,0.06452 -2.52655,0.157458 l -12.28219,1.179537 1.20525,12.018946 12.28268,-1.179537 a 14.058041,13.757968 0 0 1 15.36538,12.348163 14.058041,13.757968 0 0 1 -12.61926,15.033903 l -12.28172,1.184257 1.20574,12.019038 12.28267,-1.179581 c 0.84989,-0.07223 1.6863,-0.183942 2.50825,-0.328399 l 4.44542,5.76036 4.26773,-1.56943 -0.52582,-7.069182 c 1.53221,-0.841268 2.96522,-1.825886 4.28363,-2.934832 l 6.60986,2.739574 2.89635,-3.451553 -3.97834,-5.731274 c 0.91538,-1.508417 1.67522,-3.112176 2.2646,-4.789174 l 6.97582,-0.844735 0.74732,-4.405065 -6.29542,-2.97995 c 0.0482,-0.882005 -0.0481,-1.773351 -0.1252,-2.670379 -0.0915,-0.896595 -0.22631,-1.778792 -0.40448,-2.642836 l 5.58229,-4.123374 -1.60684,-4.178797 -7.01193,0.501361 c -0.91104,-1.532734 -1.97424,-2.962278 -3.17179,-4.267348 l 2.76105,-6.378729 -3.52426,-2.832652 -5.93765,3.943958 c -1.51391,-0.837127 -3.1169,-1.528593 -4.78778,-2.062313 l -0.88986,-7.035429 z"
       style="color:#000000;font-style:normal;font-variant:normal;font-weight:normal;font-stretch:normal;font-size:medium;line-height:normal;font-family:sans-serif;font-variant-ligatures:normal;font-variant-position:normal;font-variant-caps:normal;font-variant-numeric:normal;font-variant-alternates:normal;font-feature-settings:normal;text-indent:0;text-align:start;text-decoration:none;text-decoration-line:none;text-decoration-style:solid;text-decoration-color:#000000;letter-spacing:normal;word-spacing:normal;text-transform:none;writing-mode:lr-tb;direction:ltr;text-orientation:mixed;dominant-baseline:auto;baseline-shift:baseline;text-anchor:start;white-space:normal;shape-padding:0;clip-rule:nonzero;display:inline;overflow:visible;visibility:visible;opacity:1;isolation:auto;mix-blend-mode:normal;color-interpolation:sRGB;color-interpolation-filters:linearRGB;solid-color:#000000;solid-opacity:1;vector-effect:none;fill:#08336f;fill-opacity:1;fill-rule:nonzero;stroke:none;stroke-width:45.0760994;stroke-linecap:round;stroke-linejoin:miter;stroke-miterlimit:4;stroke-dasharray:none;stroke-dashoffset:0;stroke-opacity:1;color-rendering:auto;image-rendering:auto;shape-rendering:auto;text-rendering:auto;enable-background:accumulate" />
    <path
       style="color:#000000;font-style:normal;font-variant:normal;font-weight:normal;font-stretch:normal;font-size:medium;line-height:normal;font-family:sans-serif;font-variant-ligatures:normal;font-variant-position:normal;font-variant-caps:normal;font-variant-numeric:normal;font-variant-alternates:normal;font-feature-settings:normal;text-indent:0;text-align:start;text-decoration:none;text-decoration-line:none;text-decoration-style:solid;text-decoration-color:#000000;letter-spacing:normal;word-spacing:normal;text-transform:none;writing-mode:lr-tb;direction:ltr;text-orientation:mixed;dominant-baseline:auto;baseline-shift:baseline;text-anchor:start;white-space:normal;shape-padding:0;clip-rule:nonzero;display:inline;overflow:visible;visibility:visible;opacity:1;isolation:auto;mix-blend-mode:normal;color-interpolation:sRGB;color-interpolation-filters:linearRGB;solid-color:#000000;solid-opacity:1;vector-effect:none;fill:url(#linearGradient3875);fill-opacity:1;fill-rule:nonzero;stroke:none;stroke-width:45.0760994;stroke-linecap:round;stroke-linejoin:miter;stroke-miterlimit:4;stroke-dasharray:none;stroke-dashoffset:0;stroke-opacity:1;color-rendering:auto;image-rendering:auto;shape-rendering:auto;text-rendering:auto;enable-background:accumulate"
       d="m -591.72707,24.50046 -4.27207,1.56933 0.52967,7.069281 c -1.53317,0.841268 -2.96666,1.825885 -4.28555,2.934687 l -6.60793,-2.739526 -2.89829,3.451553 3.97979,5.73137 c -0.91489,1.508417 -1.67281,3.11078 -2.26075,4.787634 l -6.98111,0.846227 -0.74492,4.405065 6.2935,2.979998 c 0,0.882245 0.0482,1.773255 0.1252,2.670379 0.0915,0.896595 0.22631,1.778696 0.40448,2.64274 l -5.58181,4.12347 1.60684,4.17716 7.01434,-0.499772 c 0.91055,1.532686 1.97279,2.962278 3.16986,4.267445 l -2.76153,6.378728 3.52474,2.832508 5.93621,-3.943862 c 1.51391,0.836935 3.11786,1.528738 4.78922,2.062361 l 0.88649,7.035333 4.50127,0.728736 3.21079,-6.49675 c 0.83641,-0.01444 1.67955,-0.06404 2.52703,-0.157457 l 10e-4,0.0031 12.28075,-1.179537 -1.74986,-17.447198 -12.28219,1.177997 0.54605,5.42984 c 0,0 -0.002,-0.0017 -0.002,-0.0017 -7.72747,0.742026 -14.60602,-4.786334 -15.3649,-12.348115 -0.7584,-7.561204 4.8913,-14.291396 12.61781,-15.033903 v -0.0016 l 12.28123,-1.179585 -1.20573,-12.020584 -12.28123,1.179538 c -0.84989,0.06934 -1.68581,0.179608 -2.50969,0.326472 z m 26.67731,14.590518 -3.21176,6.496653 c -0.83544,0.01445 -1.67811,0.06452 -2.52655,0.157458 l -12.28219,1.179538 1.20525,12.018946 12.28267,-1.179538 a 14.058041,13.757968 0 0 1 15.36539,12.348164 14.058041,13.757968 0 0 1 -12.61926,15.033855 l -12.28172,1.184304 1.20574,12.019043 12.28267,-1.179634 c 0.84989,-0.07223 1.68629,-0.183942 2.50777,-0.328398 l 4.44542,5.760361 4.26821,-1.56948 -0.52582,-7.069134 c 1.53221,-0.841268 2.96522,-1.825885 4.28314,-2.934831 l 6.61034,2.739574 2.89588,-3.451554 -3.97786,-5.731273 c 0.9149,-1.508418 1.67522,-3.112225 2.26412,-4.789175 l 6.9763,-0.844735 0.74732,-4.405064 -6.29542,-2.97995 c 0.0481,-0.882005 -0.0481,-1.7734 -0.1252,-2.67038 -0.0915,-0.896595 -0.22631,-1.778792 -0.40448,-2.642884 l 5.58229,-4.123326 -1.60684,-4.178796 -7.01193,0.501361 c -0.91104,-1.532734 -1.97472,-2.962278 -3.17179,-4.267349 l 2.76105,-6.378729 -3.52426,-2.832652 -5.93765,3.943958 c -1.51439,-0.837127 -3.1169,-1.528593 -4.78826,-2.062313 l -0.88938,-7.035429 z"
       id="path3829"
       inkscape:connector-curvature="0" />
    <path
       inkscape:connector-curvature="0"
       id="path3831"
       style="font-style:normal;font-variant:normal;font-weight:900;font-stretch:normal;font-size:14.34392929px;line-height:1.25;font-family:Montserrat;-inkscape-font-specification:'Montserrat, Heavy';font-variant-ligatures:normal;font-variant-caps:normal;font-variant-numeric:normal;font-feature-settings:normal;text-align:start;letter-spacing:0px;word-spacing:0px;writing-mode:lr-tb;text-anchor:start;fill:#08336f;fill-opacity:1;stroke:none;stroke-width:0.8091526"
       d="m -498.85793,73.456468 c -1.89237,1.099648 -3.82973,1.912166 -5.25443,2.120994 -5.40193,0.791669 -10.00882,-2.644684 -10.88129,-8.214217 -0.85448,-5.454673 2.43383,-10.048123 7.7764,-10.831127 3.44301,-0.50458 7.7405,0.568953 10.93525,2.743875 l 6.34636,-10.269097 c -5.04581,-3.137118 -12.48765,-4.513408 -18.95816,-3.565139 -13.59393,1.992288 -22.08987,12.106566 -20.22806,23.992037 1.87085,11.94292 12.73595,19.278464 25.79562,17.364517 5.9362,-0.87001 13.25218,-4.174134 17.41471,-7.838464 l -2.59937,-16.59378 -11.81313,1.731273 z" />
    <path
       inkscape:connector-curvature="0"
       id="path3833"
       style="font-style:normal;font-variant:normal;font-weight:900;font-stretch:normal;font-size:14.34392929px;line-height:1.25;font-family:Montserrat;-inkscape-font-specification:'Montserrat, Heavy';font-variant-ligatures:normal;font-variant-caps:normal;font-variant-numeric:normal;font-feature-settings:normal;text-align:start;letter-spacing:0px;word-spacing:0px;writing-mode:lr-tb;text-anchor:start;fill:#08336f;fill-opacity:1;stroke:none;stroke-width:0.8091526"
       d="m -466.50035,43.534328 -18.77302,-0.82592 -1.91246,40.667235 18.23323,0.802194 c 14.21472,0.625392 23.76785,-6.976673 24.34891,-19.333525 0.5811,-12.356771 -8.04179,-20.700423 -21.89666,-21.309984 z m -1.06133,30.240767 -5.21806,-0.229557 0.93028,-19.782518 4.55834,0.200407 c 5.39795,0.237654 8.75114,4.338062 8.46739,10.371406 -0.28086,5.975407 -3.69985,9.661803 -8.73795,9.440141 z" />
    <path
       style="font-style:normal;font-variant:normal;font-weight:500;font-stretch:normal;font-size:14.34392929px;line-height:1.25;font-family:Montserrat;-inkscape-font-specification:'Montserrat, Medium';font-variant-ligatures:normal;font-variant-caps:normal;font-variant-numeric:normal;font-feature-settings:normal;text-align:start;letter-spacing:0px;word-spacing:0px;writing-mode:lr-tb;text-anchor:start;fill:#08336f;fill-opacity:1;stroke:none;stroke-width:0.8091526"
       d="m -426.69126,43.614207 c -12.56559,1.557628 -21.05185,11.510973 -19.51017,23.146481 1.53403,11.578059 12.36346,19.309477 24.9291,17.751849 2.49938,-0.30972 4.82894,-0.970415 6.95734,-1.902328 l 4.14751,5.265279 6.22074,-4.58264 -3.90109,-4.952077 c 4.55227,-4.339358 6.94947,-10.471447 6.0729,-17.087145 -1.53403,-11.577978 -12.3507,-19.197047 -24.91633,-17.639419 z m 1.03589,6.897604 c 7.62262,-0.944868 14.71357,4.149842 15.72099,11.753243 0.49375,3.726517 -0.58579,7.248498 -2.70665,9.987636 l -3.16964,-4.023889 -6.22255,4.584907 3.14323,3.989233 c -1.008,0.370045 -2.06716,0.64442 -3.17826,0.782154 -7.6824,0.952318 -14.96669,-4.232231 -15.97411,-11.835753 -1.00746,-7.603401 4.64503,-14.277804 12.38699,-15.237491 z"
       id="path3835"
       inkscape:connector-curvature="0" />
    <path
       inkscape:connector-curvature="0"
       id="path3837"
       style="font-style:normal;font-variant:normal;font-weight:500;font-stretch:normal;font-size:14.34392929px;line-height:1.25;font-family:Montserrat;-inkscape-font-specification:'Montserrat, Medium';font-variant-ligatures:normal;font-variant-caps:normal;font-variant-numeric:normal;font-feature-settings:normal;text-align:start;letter-spacing:0px;word-spacing:0px;writing-mode:lr-tb;text-anchor:start;fill:#08336f;fill-opacity:1;stroke:none;stroke-width:0.8091526"
       d="m -380.23306,52.937788 0.70342,15.316236 c 0.22895,4.989365 -2.59407,8.947261 -7.62974,9.221758 -4.31863,0.185427 -7.01767,-2.314356 -7.21749,-6.665536 l -0.79136,-17.230791 -7.85744,0.337655 0.89261,19.43539 c 0.33569,7.309996 4.98474,11.702553 12.18242,11.393279 5.0983,-0.219031 8.84917,-2.298527 10.87929,-6.512944 l 0.2637,5.743543 7.85749,-0.337656 -1.42545,-31.038549 z" />
    <path
       inkscape:connector-curvature="0"
       id="path3839"
       style="font-style:normal;font-variant:normal;font-weight:500;font-stretch:normal;font-size:14.34392929px;line-height:1.25;font-family:Montserrat;-inkscape-font-specification:'Montserrat, Medium';font-variant-ligatures:normal;font-variant-caps:normal;font-variant-numeric:normal;font-feature-settings:normal;text-align:start;letter-spacing:0px;word-spacing:0px;writing-mode:lr-tb;text-anchor:start;fill:#08336f;fill-opacity:1;stroke:none;stroke-width:0.8091526"
       d="m -355.10125,50.647035 c -9.59217,-0.503892 -16.66488,5.522002 -17.19563,14.974006 -0.52422,9.33601 5.65228,16.057944 15.60426,16.580743 5.63541,0.295955 10.42229,-1.429853 13.78857,-4.626244 l -3.95885,-4.453529 c -2.40516,2.141845 -5.53106,3.198941 -8.82841,3.025741 -4.67621,-0.245752 -8.00357,-3.095782 -8.77533,-7.556396 l 23.68082,1.244021 c 1.41101,-11.208662 -3.04457,-18.596271 -14.31543,-19.188342 z m -9.26196,12.889975 c 0.97661,-4.543246 4.37684,-7.272587 8.99307,-7.030074 4.85607,0.255063 7.87071,3.321411 7.79332,7.911906 z" />
    <path
       inkscape:connector-curvature="0"
       id="path3841"
       style="font-style:normal;font-variant:normal;font-weight:500;font-stretch:normal;font-size:14.34392929px;line-height:1.25;font-family:Montserrat;-inkscape-font-specification:'Montserrat, Medium';font-variant-ligatures:normal;font-variant-caps:normal;font-variant-numeric:normal;font-feature-settings:normal;text-align:start;letter-spacing:0px;word-spacing:0px;writing-mode:lr-tb;text-anchor:start;fill:#08336f;fill-opacity:1;stroke:none;stroke-width:0.8091526"
       d="m -321.58217,60.180983 1.83138,-5.840508 c -3.50061,-1.542567 -8.0332,-2.030953 -12.17598,-1.346492 -6.39173,1.055963 -11.43938,4.894506 -10.3274,11.191334 1.86122,10.886229 17.82755,5.067098 18.82827,10.734244 0.3537,2.003543 -1.50673,3.194649 -4.16999,3.634654 -3.43258,0.567091 -8.05471,-0.0834 -11.37922,-2.008402 l -1.74332,5.64921 c 3.80951,2.257433 9.04368,2.924444 13.83751,2.132452 6.74684,-1.114628 11.95179,-5.096978 10.84994,-11.336599 -1.94088,-10.990886 -18.21443,-5.533338 -19.1242,-10.685336 -0.3336,-1.889089 1.30038,-2.983797 3.78603,-3.394449 2.7224,-0.449762 6.39612,0.0038 9.78698,1.269892 z" />
    <path
       inkscape:connector-curvature="0"
       id="path3847"
       style="font-style:normal;font-variant:normal;font-weight:500;font-stretch:normal;font-size:14.34392929px;line-height:1.25;font-family:Montserrat;-inkscape-font-specification:'Montserrat, Medium';font-variant-ligatures:normal;font-variant-caps:normal;font-variant-numeric:normal;font-feature-settings:normal;text-align:start;letter-spacing:0px;word-spacing:0px;writing-mode:lr-tb;text-anchor:start;fill:#08336f;fill-opacity:1;stroke:none;stroke-width:0.8091526"
       d="m -302.43783,76.311843 c -1.80296,0.675351 -3.33766,1.021994 -4.65428,0.919564 -2.09466,-0.163159 -3.26955,-1.244912 -3.02398,-4.19713 l 1.16049,-13.950553 9.15649,0.712599 0.45746,-5.499168 -9.15649,-0.712599 0.70789,-8.509281 -7.72019,-0.600816 -0.70789,8.509281 -4.54825,-0.35385 -0.39765,5.503824 4.48848,0.349396 -1.27124,15.281945 c -0.52971,6.367476 3.41877,9.587834 8.62539,9.993061 2.81281,0.219031 5.63315,-0.377332 8.20725,-1.633499 z" />
    <path
       d="m -501.46193,70.978268 c -1.89237,1.099648 -3.82973,1.912166 -5.25443,2.120994 -5.40193,0.791669 -10.00882,-2.644684 -10.88129,-8.214217 -0.85448,-5.454673 2.43383,-10.048123 7.7764,-10.831127 3.44301,-0.50458 7.7405,0.568953 10.93525,2.743875 l 6.34636,-10.269097 c -5.04581,-3.137118 -12.48765,-4.513408 -18.95816,-3.565139 -13.59393,1.992288 -22.08987,12.106566 -20.22806,23.992037 1.87085,11.94292 12.73595,19.278464 25.79562,17.364517 5.9362,-0.87001 13.25218,-4.174134 17.41471,-7.838464 l -2.59937,-16.59378 -11.81313,1.731273 z"
       style="font-style:normal;font-variant:normal;font-weight:900;font-stretch:normal;font-size:14.34392929px;line-height:1.25;font-family:Montserrat;-inkscape-font-specification:'Montserrat, Heavy';font-variant-ligatures:normal;font-variant-caps:normal;font-variant-numeric:normal;font-feature-settings:normal;text-align:start;letter-spacing:0px;word-spacing:0px;writing-mode:lr-tb;text-anchor:start;fill:#ffffff;fill-opacity:1;stroke:none;stroke-width:0.8091526"
       id="path3851"
       inkscape:connector-curvature="0" />
    <path
       d="m -469.10435,41.056128 -18.77302,-0.82592 -1.91246,40.667235 18.23323,0.802194 c 14.21472,0.625392 23.76785,-6.976673 24.34891,-19.333525 0.5811,-12.356771 -8.04179,-20.700423 -21.89666,-21.309984 z m -1.06133,30.240767 -5.21806,-0.229557 0.93028,-19.782518 4.55834,0.200407 c 5.39795,0.237654 8.75114,4.338062 8.46739,10.371406 -0.28086,5.975407 -3.69985,9.661803 -8.73795,9.440141 z"
       style="font-style:normal;font-variant:normal;font-weight:900;font-stretch:normal;font-size:14.34392929px;line-height:1.25;font-family:Montserrat;-inkscape-font-specification:'Montserrat, Heavy';font-variant-ligatures:normal;font-variant-caps:normal;font-variant-numeric:normal;font-feature-settings:normal;text-align:start;letter-spacing:0px;word-spacing:0px;writing-mode:lr-tb;text-anchor:start;fill:#ffffff;fill-opacity:1;stroke:none;stroke-width:0.8091526"
       id="path3853"
       inkscape:connector-curvature="0" />
    <path
       inkscape:connector-curvature="0"
       id="path3855"
       d="m -429.29526,41.136007 c -12.56559,1.557628 -21.05185,11.510973 -19.51017,23.146481 1.53403,11.578059 12.36346,19.309477 24.9291,17.751849 2.49938,-0.30972 4.82894,-0.970415 6.95734,-1.902328 l 4.14751,5.265279 6.22074,-4.58264 -3.90109,-4.952077 c 4.55227,-4.339358 6.94947,-10.471447 6.0729,-17.087145 -1.53403,-11.577978 -12.3507,-19.197047 -24.91633,-17.639419 z m 1.03589,6.897604 c 7.62262,-0.944868 14.71357,4.149842 15.72099,11.753243 0.49375,3.726517 -0.58579,7.248498 -2.70665,9.987636 l -3.16964,-4.023889 -6.22255,4.584907 3.14323,3.989233 c -1.008,0.370045 -2.06716,0.64442 -3.17826,0.782154 -7.6824,0.952318 -14.96669,-4.232231 -15.97411,-11.835753 -1.00746,-7.603401 4.64503,-14.277804 12.38699,-15.237491 z"
       style="font-style:normal;font-variant:normal;font-weight:500;font-stretch:normal;font-size:14.34392929px;line-height:1.25;font-family:Montserrat;-inkscape-font-specification:'Montserrat, Medium';font-variant-ligatures:normal;font-variant-caps:normal;font-variant-numeric:normal;font-feature-settings:normal;text-align:start;letter-spacing:0px;word-spacing:0px;writing-mode:lr-tb;text-anchor:start;fill:#ffffff;fill-opacity:1;stroke:none;stroke-width:0.8091526" />
    <path
       d="m -382.83706,50.459588 0.70342,15.316236 c 0.22895,4.989365 -2.59407,8.947261 -7.62974,9.221758 -4.31863,0.185427 -7.01767,-2.314356 -7.21749,-6.665536 l -0.79136,-17.230791 -7.85744,0.337655 0.89261,19.43539 c 0.33569,7.309996 4.98474,11.702553 12.18242,11.393279 5.0983,-0.219031 8.84917,-2.298527 10.87929,-6.512944 l 0.2637,5.743543 7.85749,-0.337656 -1.42545,-31.038549 z"
       style="font-style:normal;font-variant:normal;font-weight:500;font-stretch:normal;font-size:14.34392929px;line-height:1.25;font-family:Montserrat;-inkscape-font-specification:'Montserrat, Medium';font-variant-ligatures:normal;font-variant-caps:normal;font-variant-numeric:normal;font-feature-settings:normal;text-align:start;letter-spacing:0px;word-spacing:0px;writing-mode:lr-tb;text-anchor:start;fill:#ffffff;fill-opacity:1;stroke:none;stroke-width:0.8091526"
       id="path3857"
       inkscape:connector-curvature="0" />
    <path
       d="m -357.70525,48.168835 c -9.59217,-0.503892 -16.66488,5.522002 -17.19563,14.974006 -0.52422,9.33601 5.65228,16.057944 15.60426,16.580743 5.63541,0.295955 10.42229,-1.429853 13.78857,-4.626244 l -3.95885,-4.453529 c -2.40516,2.141845 -5.53106,3.198941 -8.82841,3.025741 -4.67621,-0.245752 -8.00357,-3.095782 -8.77533,-7.556396 l 23.68082,1.244021 c 1.41101,-11.208662 -3.04457,-18.596271 -14.31543,-19.188342 z m -9.26196,12.889975 c 0.97661,-4.543246 4.37684,-7.272587 8.99307,-7.030074 4.85607,0.255063 7.87071,3.321411 7.79332,7.911906 z"
       style="font-style:normal;font-variant:normal;font-weight:500;font-stretch:normal;font-size:14.34392929px;line-height:1.25;font-family:Montserrat;-inkscape-font-specification:'Montserrat, Medium';font-variant-ligatures:normal;font-variant-caps:normal;font-variant-numeric:normal;font-feature-settings:normal;text-align:start;letter-spacing:0px;word-spacing:0px;writing-mode:lr-tb;text-anchor:start;fill:#ffffff;fill-opacity:1;stroke:none;stroke-width:0.8091526"
       id="path3859"
       inkscape:connector-curvature="0" />
    <path
       d="m -324.18617,57.702783 1.83138,-5.840508 c -3.50061,-1.542567 -8.0332,-2.030953 -12.17598,-1.346492 -6.39173,1.055963 -11.43938,4.894506 -10.3274,11.191334 1.86122,10.886229 17.82755,5.067098 18.82827,10.734244 0.3537,2.003543 -1.50673,3.194649 -4.16999,3.634654 -3.43258,0.567091 -8.05471,-0.0834 -11.37922,-2.008402 l -1.74332,5.64921 c 3.80951,2.257433 9.04368,2.924444 13.83751,2.132452 6.74684,-1.114628 11.95179,-5.096978 10.84994,-11.336599 -1.94088,-10.990886 -18.21443,-5.533338 -19.1242,-10.685336 -0.3336,-1.889089 1.30038,-2.983797 3.78603,-3.394449 2.7224,-0.449762 6.39612,0.0038 9.78698,1.269892 z"
       style="font-style:normal;font-variant:normal;font-weight:500;font-stretch:normal;font-size:14.34392929px;line-height:1.25;font-family:Montserrat;-inkscape-font-specification:'Montserrat, Medium';font-variant-ligatures:normal;font-variant-caps:normal;font-variant-numeric:normal;font-feature-settings:normal;text-align:start;letter-spacing:0px;word-spacing:0px;writing-mode:lr-tb;text-anchor:start;fill:#ffffff;fill-opacity:1;stroke:none;stroke-width:0.8091526"
       id="path3863"
       inkscape:connector-curvature="0" />
    <path
       d="m -305.04183,73.833643 c -1.80296,0.675351 -3.33766,1.021994 -4.65428,0.919564 -2.09466,-0.163159 -3.26955,-1.244912 -3.02398,-4.19713 l 1.16049,-13.950553 9.15649,0.712599 0.45746,-5.499168 -9.15649,-0.712599 0.70789,-8.509281 -7.72019,-0.600816 -0.70789,8.509281 -4.54825,-0.35385 -0.39765,5.503824 4.48848,0.349396 -1.27124,15.281945 c -0.52971,6.367476 3.41877,9.587834 8.62539,9.993061 2.81281,0.219031 5.63315,-0.377332 8.20725,-1.633499 z"
       style="font-style:normal;font-variant:normal;font-weight:500;font-stretch:normal;font-size:14.34392929px;line-height:1.25;font-family:Montserrat;-inkscape-font-specification:'Montserrat, Medium';font-variant-ligatures:normal;font-variant-caps:normal;font-variant-numeric:normal;font-feature-settings:normal;text-align:start;letter-spacing:0px;word-spacing:0px;writing-mode:lr-tb;text-anchor:start;fill:#ffffff;fill-opacity:1;stroke:none;stroke-width:0.8091526"
       id="path3865"
       inkscape:connector-curvature="0" />
    <path
       inkscape:connector-curvature="0"
       style="color:#000000;font-style:normal;font-variant:normal;font-weight:normal;font-stretch:normal;font-size:medium;line-height:normal;font-family:sans-serif;font-variant-ligatures:normal;font-variant-position:normal;font-variant-caps:normal;font-variant-numeric:normal;font-variant-alternates:normal;font-feature-settings:normal;text-indent:0;text-align:start;text-decoration:none;text-decoration-line:none;text-decoration-style:solid;text-decoration-color:#000000;letter-spacing:normal;word-spacing:normal;text-transform:none;writing-mode:lr-tb;direction:ltr;text-orientation:mixed;dominant-baseline:auto;baseline-shift:baseline;text-anchor:start;white-space:normal;shape-padding:0;clip-rule:nonzero;display:inline;overflow:visible;visibility:visible;opacity:0.59299999;isolation:auto;mix-blend-mode:normal;color-interpolation:sRGB;color-interpolation-filters:linearRGB;solid-color:#000000;solid-opacity:1;vector-effect:none;fill:#ffcc00;fill-opacity:1;fill-rule:nonzero;stroke:none;stroke-width:45.0760994;stroke-linecap:round;stroke-linejoin:miter;stroke-miterlimit:4;stroke-dasharray:none;stroke-dashoffset:0;stroke-opacity:1;color-rendering:auto;image-rendering:auto;shape-rendering:auto;text-rendering:auto;enable-background:accumulate"
       d="m -537.24589,59.874237 a 340.80256,37.583839 0.50343195 0 0 -22.8395,0.363226 14.058041,13.757968 0 0 1 5.86944,9.873719 14.058041,13.757968 0 0 1 -12.62052,15.034553 l -12.28291,1.184464 1.20651,12.018674 12.2829,-1.179496 c 0.84978,-0.07262 1.68682,-0.183969 2.50857,-0.328444 l 4.44381,5.760517 4.27054,-1.57011 -0.52745,-7.069456 c 1.53138,-0.841241 2.96594,-1.824791 4.28456,-2.933705 l 6.60838,2.73967 2.89714,-3.451343 -3.97879,-5.730579 c 0.91476,-1.508449 1.67535,-3.113215 2.26395,-4.790091 l 6.97786,-0.843535 0.74658,-4.406863 -6.29625,-2.978551 c 0.051,-0.88201 -0.051,-1.772938 -0.1274,-2.669981 -0.0892,-0.896534 -0.22678,-1.780965 -0.40515,-2.645138 l 5.58407,-4.123138 z m -57.86382,1.219245 a 340.80256,37.583839 0.50343195 0 0 -14.32262,0.485278 l -4.59542,3.394011 1.60655,4.177921 7.0148,-0.500183 c 0.91093,1.532783 1.97347,2.96237 3.17105,4.267612 l -2.76209,6.377531 3.52524,2.834203 5.93442,-3.944009 c 1.51482,0.836909 3.11882,1.526795 4.79035,2.060359 l 0.88545,7.036967 4.50241,0.729127 3.20928,-6.497035 c 0.83704,-0.01401 1.68044,-0.06625 2.52895,-0.159253 v 0 l 12.28035,-1.179496 -1.74924,-17.4482 -12.28163,1.176948 0.54401,5.432074 v 0 c -6.24146,0.599303 -11.92363,-2.896248 -14.28058,-8.246403 z"
       id="path3879" />
    <path
       inkscape:connector-curvature="0"
       style="font-style:normal;font-variant:normal;font-weight:900;font-stretch:normal;font-size:14.34392929px;line-height:1.25;font-family:Montserrat;-inkscape-font-specification:'Montserrat, Heavy';font-variant-ligatures:normal;font-variant-caps:normal;font-variant-numeric:normal;font-feature-settings:normal;text-align:start;letter-spacing:0px;word-spacing:0px;writing-mode:lr-tb;text-anchor:start;opacity:1;fill:#dddddd;fill-opacity:1;stroke:none;stroke-width:0.8091526"
       d="m -517.12006,59.777156 a 340.80256,37.583839 0.50343195 0 0 -14.45003,0.06752 c -0.45993,2.258979 -0.54274,4.643069 -0.15671,7.111753 1.87155,11.942869 12.73774,19.277577 25.79653,17.363604 5.45284,-0.799198 12.03829,-3.655824 16.30629,-6.95492 l -0.1669,3.53339 18.23516,0.801236 c 12.0969,0.532289 20.79342,-4.909213 23.48162,-14.153562 2.95702,9.723256 12.85877,15.895159 24.19762,14.489524 2.49964,-0.309589 4.82857,-0.971574 6.95747,-1.903526 l 4.14696,5.265304 6.22108,-4.583571 -3.90107,-4.951766 c 2.6436,-2.520793 4.55592,-5.64815 5.52673,-9.122298 l 0.18856,4.135624 c 0.33761,7.309992 4.98272,11.70093 12.18098,11.391596 5.09739,-0.219005 8.85068,-2.297455 10.88148,-6.511941 l 0.26372,5.743065 7.85821,-0.338382 -0.53,-11.560787 c 1.98239,5.85365 7.32057,9.732939 14.7851,10.125085 5.63503,0.295957 10.42155,-1.42946 13.78753,-4.62587 l -3.9584,-4.45413 c -2.40537,2.141896 -5.53183,3.198958 -8.82902,3.025817 -4.67568,-0.245632 -8.00217,-3.096398 -8.77296,-7.557026 l 23.68037,1.244089 c 0.0764,-0.632683 0.1325,-1.248548 0.17454,-1.85626 4.58523,5.626237 16.33049,2.103803 17.18409,6.940015 0.35164,2.003409 -1.50717,3.19539 -4.16989,3.63544 -3.43223,0.56707 -8.05441,-0.08281 -11.37962,-2.008124 l -1.7416,5.648532 c 3.81062,2.257451 9.04433,2.924532 13.83722,2.132469 4.25016,-0.70199 7.88242,-2.542834 9.71702,-5.367354 1.3734,2.956 4.31768,4.52331 7.84164,4.797608 2.81178,0.219006 5.63248,-0.376475 8.20602,-1.632412 l -1.32117,-5.812754 c -1.80275,0.675362 -3.33923,1.020624 -4.6553,0.918192 -2.0945,-0.163203 -3.26916,-1.24307 -3.02327,-4.195375 l 0.3682,-4.434129 a 340.80256,37.583839 0.50343195 0 0 -7.72699,-0.527575 l -0.10192,1.249185 c -0.39877,-0.522097 -0.87143,-0.950298 -1.3734,-1.341297 a 340.80256,37.583839 0.50343195 0 0 -60.74057,-3.254633 l 0.1618,3.528422 c 0.23187,4.989349 -2.59265,8.947246 -7.62888,9.221799 -4.31769,0.185371 -7.01608,-2.315164 -7.2161,-6.666353 l -0.30322,-6.636286 a 340.80256,37.583839 0.50343195 0 0 -15.14692,-0.54745 c 0.10192,3.217431 -0.95298,6.224138 -2.81433,8.627082 l -3.16978,-4.023636 -6.22363,4.583444 3.14557,3.988856 c -1.00903,0.369723 -2.06902,0.646059 -3.17997,0.783782 -7.68239,0.952336 -14.96601,-4.233469 -15.97249,-11.836997 -0.12868,-0.966223 -0.14779,-1.917922 -0.0764,-2.844141 a 340.80256,37.583839 0.50343195 0 0 -20.74756,-0.343478 c 0.0382,0.572166 0.0637,1.159875 0.0382,1.774212 -0.27902,5.975447 -3.69851,9.659937 -8.73602,9.438256 l -5.22096,-0.228943 0.5249,-11.175139 a 340.80256,37.583839 0.50343195 0 0 -4.17754,-0.05988 340.80256,37.583839 0.50343195 0 0 -9.75651,-0.04714 l -0.54019,11.458738 -1.77982,-11.356816 -11.81406,1.731914 1.46513,9.35863 c -1.89193,1.099614 -3.82845,1.913718 -5.25282,2.122531 -5.40188,0.791681 -10.00876,-2.644373 -10.88147,-8.213915 -0.28793,-1.839952 -0.10193,-3.577727 0.47776,-5.108599 z"
       id="path3881" />
  </g>
</svg>
