<?xml version="1.0" encoding="UTF-8" standalone="no"?>
<svg
   xmlns:dc="http://purl.org/dc/elements/1.1/"
   xmlns:cc="http://creativecommons.org/ns#"
   xmlns:rdf="http://www.w3.org/1999/02/22-rdf-syntax-ns#"
   xmlns:svg="http://www.w3.org/2000/svg"
   xmlns="http://www.w3.org/2000/svg"
   xmlns:xlink="http://www.w3.org/1999/xlink"
   xmlns:sodipodi="http://sodipodi.sourceforge.net/DTD/sodipodi-0.dtd"
   xmlns:inkscape="http://www.inkscape.org/namespaces/inkscape"
   id="svg8"
   version="1.1"
   viewBox="0 0 508.00005 285.75001"
   height="1080"
   width="1920.0002"
   sodipodi:docname="background.svg"
   inkscape:version="1.0beta1 (fe3e306, 2019-09-17)">
  <sodipodi:namedview
     pagecolor="#ffffff"
     bordercolor="#666666"
     inkscape:document-rotation="0"
     borderopacity="1"
     objecttolerance="10"
     gridtolerance="10"
     guidetolerance="10"
     inkscape:pageopacity="0"
     inkscape:pageshadow="2"
     inkscape:window-width="1920"
     inkscape:window-height="1011"
     id="namedview4518"
     showgrid="false"
     inkscape:zoom="0.57157798"
     inkscape:cx="848.29044"
     inkscape:cy="491.57544"
     inkscape:window-x="0"
     inkscape:window-y="32"
     inkscape:window-maximized="1"
     inkscape:current-layer="svg8"
     inkscape:snap-global="true" />
  <defs
     id="defs2">
    <linearGradient
       y2="857.76099"
       x2="-1433.9565"
       y1="579.41925"
       x1="-1433.9565"
       gradientTransform="matrix(0.99999997,0,0,-0.99999997,1761.5107,901.81917)"
       gradientUnits="userSpaceOnUse"
       id="linearGradient3247"
       xlink:href="#linearGradient3441" />
    <linearGradient
       id="linearGradient3441">
      <stop
         style="stop-color:#0593f9;stop-opacity:1"
         offset="0"
         id="stop3437" />
      <stop
         style="stop-color:#0fabf4;stop-opacity:1"
         offset="1"
         id="stop3439" />
    </linearGradient>
    <linearGradient
       y2="240.53696"
       x2="-1790.0758"
       y1="63.925117"
       x1="-1790.0758"
       gradientTransform="matrix(1.4328357,0,0,-1.6119403,2922.5697,432.01069)"
       gradientUnits="userSpaceOnUse"
       id="linearGradient3245"
       xlink:href="#linearGradient3526" />
    <linearGradient
       id="linearGradient3526">
      <stop
         id="stop3522"
         offset="0"
         style="stop-color:#3923ac;stop-opacity:1" />
      <stop
         id="stop3524"
         offset="1"
         style="stop-color:#741cd1;stop-opacity:1" />
    </linearGradient>
    <linearGradient
       inkscape:collect="always"
       xlink:href="#linearGradient3526"
       id="linearGradient3385"
       gradientUnits="userSpaceOnUse"
       gradientTransform="matrix(1.4328357,0,0,-1.6119403,2859.0697,389.01068)"
       x1="-1790.0758"
       y1="63.925117"
       x2="-1790.0758"
       y2="240.53696" />
    <linearGradient
       gradientTransform="matrix(-0.99999998,0,0,0.99999998,2246.0423,-2315.7177)"
       gradientUnits="userSpaceOnUse"
       y2="2588.7676"
       x2="1939.6548"
       y1="2326.8301"
       x1="1939.6548"
       id="linearGradient3401-0-6"
       xlink:href="#blue-bg"
       inkscape:collect="always" />
    <linearGradient
       id="blue-bg"
       inkscape:collect="always">
      <stop
         id="stop3725"
         offset="0"
         style="stop-color:#a7c6f2;stop-opacity:1" />
      <stop
         id="stop3727"
         offset="1"
         style="stop-color:#86b0fb;stop-opacity:1" />
    </linearGradient>
  </defs>
  <metadata
     id="metadata5">
    <rdf:RDF>
      <cc:Work
         rdf:about="">
        <dc:format>image/svg+xml</dc:format>
        <dc:type
           rdf:resource="http://purl.org/dc/dcmitype/StillImage" />
        <dc:title />
      </cc:Work>
    </rdf:RDF>
  </metadata>
  <path
     inkscape:connector-curvature="0"
     id="path3286"
     d="M 0,285.75 H 508.00004 V 1e-6 H 0 Z"
     style="opacity:1;fill:url(#linearGradient3385);fill-opacity:1;fill-rule:nonzero;stroke:none;stroke-width:10.5833;stroke-linecap:round;stroke-linejoin:miter;stroke-miterlimit:4;stroke-dasharray:none;stroke-dashoffset:0;stroke-opacity:1;stop-opacity:1" />
  <path
     inkscape:connector-curvature="0"
     style="color:#000000;font-style:normal;font-variant:normal;font-weight:normal;font-stretch:normal;font-size:medium;line-height:normal;font-family:sans-serif;font-variant-ligatures:normal;font-variant-position:normal;font-variant-caps:normal;font-variant-numeric:normal;font-variant-alternates:normal;font-feature-settings:normal;text-indent:0;text-align:start;text-decoration:none;text-decoration-line:none;text-decoration-style:solid;text-decoration-color:#000000;letter-spacing:normal;word-spacing:normal;text-transform:none;writing-mode:lr-tb;direction:ltr;text-orientation:mixed;dominant-baseline:auto;baseline-shift:baseline;text-anchor:start;white-space:normal;shape-padding:0;clip-rule:nonzero;display:inline;overflow:visible;visibility:visible;opacity:0.179;isolation:auto;mix-blend-mode:normal;color-interpolation:sRGB;color-interpolation-filters:linearRGB;solid-color:#000000;solid-opacity:1;vector-effect:none;fill:#1c1669;fill-opacity:1;fill-rule:nonzero;stroke:none;stroke-width:1.85208;stroke-linecap:round;stroke-linejoin:round;stroke-miterlimit:4;stroke-dasharray:none;stroke-dashoffset:0;stroke-opacity:1;color-rendering:auto;image-rendering:auto;shape-rendering:auto;text-rendering:auto;enable-background:accumulate"
     d="M 86.177552,4.9631067e-4 78.872152,1.9589963 C 45.983951,10.778096 18.42685,31.001596 0,57.662896 V 86.056297 C 15.13125,52.080696 44.926052,25.513896 82.483452,15.442996 l 15.817401,-4.2387 15.074997,20.6409 56.5146,-5.7655 3.391,33.8325 h 0.168 c 65.8696,4.4489 117.53451,59.552804 117.53451,125.572304 v 0.08 0.08 c -0.10141,40.1112 -19.21052,76.8021 -49.73901,100.10651 h 21.3393 C 288.90026,260.0515 304.85406,224.3079 304.90274,185.728 a 13.964403,13.964403 0 0 0 0,-0.08 v -0.08 -0.08 c 0,-69.346 -51.41499,-127.876602 -118.86449,-138.180504 l -0.1673,-1.347301 -2.1192,-21.256499 a 13.964403,13.964403 0 0 0 -15.3129,-12.5212 l -48.5664,4.9789 -10.3328,-14.1966998 A 13.964403,13.964403 0 0 0 106.59865,-3.6883257e-6 Z M 88.301851,39.004696 l -13.3771,4.914101 1.659599,22.1365 c -4.8015,2.634599 -9.2905,5.7174 -13.4204,9.189 l -20.6922,-8.5785 -9.074398,10.808099 12.461398,17.947302 C 42.993551,100.1445 40.620651,105.1613 38.779252,110.4122 l -21.859002,2.6507 -2.3334,13.7936 19.706701,9.3311 c 0,2.7631 0.1442,5.5533 0.390699,8.3625 0.2793,2.8079 0.710301,5.5697 1.267302,8.2753 l -17.479402,12.9118 5.0326,13.0806 21.963901,-1.5649 c 2.8507,4.7991 6.177,9.2756 9.9264,13.3623 l -8.6472,19.9739 11.0369,8.87 18.5883,-12.3494 c 4.7401,2.6202 9.7624,4.7863 14.995501,6.4571 l 2.776998,22.0311 14.0947,2.2808 10.0554,-20.3425 c 2.6178,-0.08 5.2589,-0.1992 7.9127,-0.4944 l 38.4551,-3.6938 -5.4807,-54.6338 -38.4591,3.6897 1.7099,17.0024 C 98.23545,181.729 76.696052,164.4185 74.320951,140.7399 71.945651,117.0627 89.63655,95.988197 113.83145,93.663899 l 38.4562,-3.694102 -3.7749,-37.641599 -38.4573,3.693498 c -2.6609,0.215601 -5.2782,0.5588 -7.8585,1.0233 z m 83.536399,45.687801 -10.0566,20.342703 c -2.6169,0.08 -5.2557,0.1998 -7.9127,0.495 l -38.4602,3.6936 3.7748,37.6354 38.4619,-3.6941 a 44.020674,43.081033 0 0 1 48.1142,38.667 44.020674,43.081033 0 0 1 -39.5149,47.077 l -38.4602,3.7076 3.7765,37.6361 38.4619,-3.69419 c 2.6611,-0.22342 5.28,-0.57462 7.8524,-1.0278 l 13.9199,18.0381 13.3652,-4.91522 -1.6455,-22.13539 c 4.7982,-2.6345 9.2852,-5.7177 13.4119,-9.1901 l 20.6978,8.5784 9.0689,-10.808 -12.4558,-17.9473 c 2.8643,-4.7235 5.2463,-9.7453 7.0901,-14.9961 l 21.8439,-2.6445 2.34069,-13.7942 -19.71299,-9.3316 c 0.1444,-2.7615 -0.1442,-5.5534 -0.3906,-8.362 -0.2794,-2.807 -0.71,-5.57 -1.2662,-8.2757 l 17.4799,-12.9109 -5.0308,-13.0861 -21.9578,1.5701 c -2.8515,-4.7993 -6.1834,-9.2764 -9.932,-13.363 l 8.6461,-19.974 -11.0353,-8.8699 -18.5921,12.3505 c -4.7417,-2.6218 -9.7617,-4.7863 -14.9949,-6.4571 l -2.785,-22.031102 z M 0,188.2588 v 28.2564 c 21.42955,30.9157 55.013551,52.96039 93.95605,58.91938 l 0.144902,1.34851 0.8953,8.96691 h 14.083398 l -2.3057,-22.9752 h -0.168 C 58.819852,259.5455 18.52405,229.6415 0,188.2588 Z"
     id="path3237" />
  <path
     inkscape:connector-curvature="0"
     id="path3298"
     d="M 3.88486,13.067201 498.55034,2.865201 504.11506,272.68279 9.44956,282.8848 Z"
     style="opacity:0.652;fill:#000000;fill-opacity:1;fill-rule:nonzero;stroke:none;stroke-width:10.5833;stroke-linecap:round;stroke-linejoin:miter;stroke-miterlimit:4;stroke-dasharray:none;stroke-dashoffset:0;stroke-opacity:1;stop-opacity:1" />
  <path
     style="opacity:1;fill:#ffffff;fill-opacity:1;fill-rule:nonzero;stroke:none;stroke-width:10.5833;stroke-linecap:round;stroke-linejoin:miter;stroke-miterlimit:4;stroke-dasharray:none;stroke-dashoffset:0;stroke-opacity:1;stop-opacity:1"
     d="M 6.61456,7.937501 H 501.38535 V 277.8125 H 6.61456 Z"
     id="path3300"
     inkscape:connector-curvature="0" />
  <path
     style="opacity:1;fill:url(#linearGradient3401-0-6);fill-opacity:1;fill-rule:nonzero;stroke:none;stroke-width:10.5833;stroke-linecap:round;stroke-linejoin:miter;stroke-miterlimit:4;stroke-dasharray:none;stroke-dashoffset:0;stroke-opacity:1;stop-opacity:1"
     d="M 497.41666,273.8437 H 10.58327 V 11.9062 h 486.83339 z"
     id="path3302-1-6"
     inkscape:connector-curvature="0" />
  <path
     id="path3304"
     d="m 89.57966,11.906201 -6.6967,1.7953 c -30.1475,8.0842 -55.4082,26.6224 -72.2995,51.062 v 26.0273 c 13.8703,-31.1443 41.1822,-55.497301 75.6099,-64.7289 l 14.4993,-3.8855 13.8188,18.9208 51.8051,-5.285002 3.1084,31.013202 h 0.154 c 60.3806,4.0781 107.74019,54.590099 107.74019,115.108099 v 0.073 0.073 c -0.093,36.7687 -17.60969,70.402 -45.59419,91.76441 h 19.5611 C 275.40907,250.286 290.03335,217.521 290.07807,182.156 a 12.800723,12.800723 0 0 0 0,-0.073 v -0.073 -0.073 c 0,-63.5673 -47.13051,-117.220398 -108.95931,-126.665698 l -0.1534,-1.235001 -1.9426,-19.4852 a 12.800723,12.800723 0 0 0 -14.0368,-11.477799 l -44.5193,4.564001 -9.4717,-13.013601 a 12.800723,12.800723 0 0 0 -2.696,-2.7177 z m 1.9472,35.7539 -12.2623,4.5046 1.5213,20.291798 c -4.4014,2.415101 -8.5163,5.241002 -12.3021,8.423302 l -18.9678,-7.8636 -8.3183,9.9074 11.423,16.451699 c -2.6264,4.3297 -4.8016,8.9285 -6.4895,13.7418 l -20.0375,2.4298 -2.1389,12.6442 18.0645,8.5535 c 0,2.5328 0.1321,5.0905 0.3581,7.6656 0.256,2.5739 0.6511,5.1056 1.1617,7.5857 l -16.0228,11.8359 4.6132,11.9905 20.1336,-1.4345 c 2.6132,4.3992 5.6623,8.5027 9.0992,12.2488 l -7.9266,18.3095 10.1172,8.1308 17.0393,-11.3203 c 4.3451,2.4019 8.9489,4.3875 13.7459,5.919 l 2.5456,20.1952 12.9201,2.0908 9.2175,-18.6474 c 2.3997,-0.073 4.8207,-0.1826 7.2533,-0.4532 l 35.2506,-3.3859 -5.024,-50.0811 -35.2542,3.3822 1.5674,15.5856 c -22.1816,2.1291 -41.9261,-13.7389 -44.1033,-35.4443 -2.1774,-21.7041 14.0393,-41.022399 36.218,-43.152999 l 35.2516,-3.386302 -3.4603,-34.5049 -35.2526,3.385802 c -2.4392,0.197599 -4.8384,0.512199 -7.2037,0.937998 z m 76.5752,41.880599 -9.2186,18.6475 c -2.3988,0.073 -4.8177,0.1831 -7.2533,0.4537 l -35.2552,3.3858 3.4602,34.4992 35.2568,-3.3863 a 40.352348,39.491007 0 0 1 44.1048,35.4448 40.352348,39.491007 0 0 1 -36.2221,43.154 l -35.2552,3.3987 3.4618,34.4998 35.2568,-3.3864 c 2.4393,-0.2048 4.84,-0.5267 7.198,-0.9421 l 12.7599,16.53489 12.2515,-4.50559 -1.5084,-20.2908 c 4.3984,-2.415 8.5115,-5.2412 12.2943,-8.4243 l 18.973,7.8636 8.3132,-9.9074 -11.4179,-16.4517 c 2.6256,-4.3299 4.8091,-8.9332 6.4993,-13.7464 l 20.0236,-2.4242 2.1456,-12.6447 -18.0702,-8.554 c 0.1323,-2.5313 -0.1322,-5.0906 -0.3581,-7.6651 -0.2561,-2.5731 -0.6508,-5.1059 -1.1607,-7.5861 l 16.0233,-11.835 -4.6116,-11.9956 -20.128,1.4392 c -2.6139,-4.3993 -5.6681,-8.5033 -9.1043,-12.2494 l 7.9256,-18.3095 -10.1157,-8.1308 -17.0428,11.3213 c -4.3466,-2.4033 -8.9483,-4.3874 -13.7454,-5.919 l -2.5529,-20.1952 z m -157.5186,94.9359 v 25.9017 c 19.6437,28.3395 50.4291,48.5471 86.1265,54.0096 l 0.1328,1.23609 0.8207,8.21971 h 12.9098 l -2.1136,-21.0607 h -0.154 c -43.804,-2.9602 -80.7418,-30.3722 -97.7222,-68.3064 z"
     style="color:#000000;font-style:normal;font-variant:normal;font-weight:normal;font-stretch:normal;font-size:medium;line-height:normal;font-family:sans-serif;font-variant-ligatures:normal;font-variant-position:normal;font-variant-caps:normal;font-variant-numeric:normal;font-variant-alternates:normal;font-feature-settings:normal;text-indent:0;text-align:start;text-decoration:none;text-decoration-line:none;text-decoration-style:solid;text-decoration-color:#000000;letter-spacing:normal;word-spacing:normal;text-transform:none;writing-mode:lr-tb;direction:ltr;text-orientation:mixed;dominant-baseline:auto;baseline-shift:baseline;text-anchor:start;white-space:normal;shape-padding:0;clip-rule:nonzero;display:inline;overflow:visible;visibility:visible;opacity:0.08;isolation:auto;mix-blend-mode:normal;color-interpolation:sRGB;color-interpolation-filters:linearRGB;solid-color:#000000;solid-opacity:1;vector-effect:none;fill:#3923ac;fill-opacity:1;fill-rule:nonzero;stroke:none;stroke-width:1.85208;stroke-linecap:round;stroke-linejoin:round;stroke-miterlimit:4;stroke-dasharray:none;stroke-dashoffset:0;stroke-opacity:1;color-rendering:auto;image-rendering:auto;shape-rendering:auto;text-rendering:auto;enable-background:accumulate;stop-opacity:1"
     inkscape:connector-curvature="0" />
</svg>
